<?xml version="1.0" encoding="iso-8859-1"?>
<!-- Generator: Adobe Illustrator 18.0.0, SVG Export Plug-In . SVG Version: 6.00 Build 0)  -->
<!DOCTYPE svg PUBLIC "-//W3C//DTD SVG 1.1//EN" "http://www.w3.org/Graphics/SVG/1.1/DTD/svg11.dtd">
<svg version="1.1" id="Capa_1" xmlns="http://www.w3.org/2000/svg" xmlns:xlink="http://www.w3.org/1999/xlink" x="0px" y="0px"
	 viewBox="0 0 488.664 488.664" style="enable-background:new 0 0 488.664 488.664;" xml:space="preserve">
<g>
	<path d="M436.665,0H51.999c-2.347,0-4.25,1.902-4.25,4.25v480.164c0,2.348,1.903,4.25,4.25,4.25h384.666
		c2.348,0,4.25-1.902,4.25-4.25V4.25C440.915,1.902,439.013,0,436.665,0z M432.415,480.164H56.249V8.5h376.166V480.164z"/>
	<path d="M72.09,244.342v200.867c0,11.627,9.533,21.086,21.25,21.086h67.435h167.113h67.436c11.717,0,21.25-9.459,21.25-21.086
		V43.455c0-11.627-9.533-21.086-21.25-21.086h-67.436H160.775H93.34c-11.717,0-21.25,9.459-21.25,21.086v200.867
		c0,0.004-0.001,0.007-0.001,0.01S72.09,244.338,72.09,244.342z M165.025,457.795v-32.504h158.613v32.504H165.025z M395.324,457.795
		h-63.186v-36.754c0-2.348-1.902-4.25-4.25-4.25H160.775c-2.347,0-4.25,1.902-4.25,4.25v36.754H93.34
		c-7.03,0-12.75-5.646-12.75-12.586V248.582h71.363c2.249,48.56,42.822,87.383,92.379,87.383s90.131-38.822,92.38-87.383h71.362
		v3.824h-55.731c-2.348,0-4.25,1.902-4.25,4.25c0,2.348,1.902,4.25,4.25,4.25h55.731v184.303
		C408.074,452.148,402.354,457.795,395.324,457.795z M328.205,248.582c-2.242,43.873-39.005,78.883-83.873,78.883
		c-44.868,0-81.63-35.01-83.873-78.883H328.205z M160.459,240.082c2.243-43.872,39.005-78.881,83.873-78.881
		c44.868,0,81.631,35.009,83.873,78.881H160.459z M323.639,30.869V63.42H165.025V30.869H323.639z M93.34,30.869h63.185V67.67
		c0,2.348,1.903,4.25,4.25,4.25h167.113c2.348,0,4.25-1.902,4.25-4.25V30.869h63.186c7.03,0,12.75,5.646,12.75,12.586v196.627
		h-71.362c-2.249-48.56-42.823-87.381-92.38-87.381s-90.13,38.821-92.379,87.381H80.59v-4.355h54.614c2.347,0,4.25-1.902,4.25-4.25
		c0-2.348-1.903-4.25-4.25-4.25H80.59V43.455C80.59,36.516,86.31,30.869,93.34,30.869z"/>
</g>
<g>
</g>
<g>
</g>
<g>
</g>
<g>
</g>
<g>
</g>
<g>
</g>
<g>
</g>
<g>
</g>
<g>
</g>
<g>
</g>
<g>
</g>
<g>
</g>
<g>
</g>
<g>
</g>
<g>
</g>
</svg>
